<svg width="294" height="374" viewBox="0 0 294 374" fill="none" xmlns="http://www.w3.org/2000/svg">
    <g clip-path="url(#clip0_2_84)">
        <path
        d="M197.507 84.682C190.621 70.8808 196.221 54.1072 210.014 47.2171C223.807 40.3271 240.571 45.9297 247.457 59.7309C254.343 73.5321 248.744 90.3057 234.95 97.1958C221.157 104.086 204.393 98.4832 197.507 84.682Z"
        fill="#FFCC5A" />
        <path
        d="M232.206 85.8499C231.755 85.8499 231.324 85.6713 231.005 85.3532C230.686 85.0351 230.506 84.6035 230.505 84.1531C230.498 82.036 229.654 80.0079 228.158 78.5109C226.662 77.0139 224.635 76.1696 222.519 76.1622C220.403 76.1709 218.377 77.0155 216.881 78.5122C215.386 80.0089 214.541 82.0364 214.533 84.1531C214.533 84.6031 214.354 85.0347 214.036 85.353C213.718 85.6712 213.287 85.8499 212.837 85.8499C212.387 85.8499 211.955 85.6713 211.636 85.3532C211.317 85.0351 211.137 84.6035 211.136 84.1531C211.139 81.1278 212.341 78.227 214.478 76.0874C216.616 73.9477 219.514 72.744 222.538 72.7402C225.561 72.744 228.46 73.9477 230.597 76.0874C232.735 78.227 233.937 81.1278 233.939 84.1531C233.939 84.3791 233.894 84.6029 233.807 84.8112C233.719 85.0196 233.591 85.2084 233.429 85.3664C233.268 85.5245 233.076 85.6487 232.866 85.7317C232.656 85.8148 232.432 85.8549 232.206 85.8499Z"
        fill="#311E69" />
        <path
        d="M221.293 45.4209C221.293 45.4209 209.379 46.6008 201.896 55.6633C194.412 64.7259 197.071 81.1823 199.547 85.1214C202.023 89.0604 199.829 60.1194 221.293 45.4209Z"
        fill="#FFE48D" />
        <path
        d="M231.797 70.6626C229.1 70.6626 227.142 67.33 227.142 62.7423C227.142 62.291 227.321 61.8582 227.64 61.5391C227.959 61.22 228.391 61.0407 228.842 61.0407C229.065 61.0407 229.286 61.0848 229.492 61.1703C229.698 61.2559 229.885 61.3813 230.043 61.5394C230.2 61.6974 230.325 61.885 230.41 62.0915C230.495 62.2979 230.539 62.5191 230.538 62.7423C230.538 65.5203 231.478 67.1137 231.872 67.2782C232.098 67.1137 233.051 65.5203 233.051 62.7423C233.051 62.5191 233.094 62.2979 233.179 62.0915C233.264 61.885 233.389 61.6974 233.546 61.5394C233.704 61.3813 233.891 61.2559 234.097 61.1703C234.303 61.0848 234.524 61.0407 234.747 61.0407C234.971 61.0407 235.192 61.0847 235.398 61.1702C235.604 61.2557 235.792 61.3811 235.95 61.5391C236.108 61.6971 236.233 61.8847 236.318 62.0911C236.404 62.2976 236.448 62.5188 236.448 62.7423C236.448 67.33 234.489 70.6626 231.797 70.6626Z"
        fill="#311E69" />
        <path
        d="M213.208 70.6626C210.511 70.6626 208.552 67.33 208.552 62.7423C208.552 62.291 208.732 61.8582 209.051 61.5391C209.369 61.22 209.802 61.0407 210.253 61.0407C210.476 61.0407 210.697 61.0848 210.903 61.1703C211.109 61.2559 211.296 61.3813 211.454 61.5394C211.611 61.6974 211.736 61.885 211.821 62.0915C211.906 62.2979 211.95 62.5191 211.949 62.7423C211.949 65.5203 212.888 67.1137 213.283 67.2782C213.509 67.1137 214.462 65.525 214.462 62.7423C214.462 62.291 214.641 61.8582 214.96 61.5391C215.279 61.22 215.712 61.0407 216.163 61.0407C216.386 61.0407 216.607 61.0848 216.813 61.1703C217.019 61.2559 217.206 61.3813 217.364 61.5394C217.521 61.6974 217.646 61.885 217.731 62.0915C217.816 62.2979 217.859 62.5191 217.859 62.7423C217.859 67.33 215.904 70.6626 213.208 70.6626Z"
        fill="#311E69" />
        <path
        d="M20.6001 322.538C6.24729 319.148 -2.64178 304.758 0.745789 290.397C4.13336 276.036 18.5148 267.142 32.8676 270.531C47.2204 273.921 56.1095 288.311 52.7219 302.672C49.3343 317.033 34.9529 325.927 20.6001 322.538Z"
        fill="#FFCC5A" />
        <path
        d="M41.3733 295.967C41.3751 297.895 40.9971 299.805 40.2609 301.587C39.5247 303.369 38.4446 304.989 37.0825 306.353C35.7205 307.717 34.103 308.799 32.3227 309.538C30.5424 310.276 28.6341 310.656 26.7069 310.656C22.8171 310.656 19.0866 309.11 16.3361 306.358C13.5857 303.606 12.0405 299.873 12.0405 295.981L41.3733 295.967Z"
        fill="#FFF8F8" />
        <path
        d="M25.5512 270.899C25.5512 270.899 14.1544 272.032 6.99501 280.7C-0.164383 289.367 2.38181 305.109 4.73539 308.903C7.08897 312.696 5.01725 284.944 25.5512 270.899Z"
        fill="#FFE48D" />
        <path
        d="M35.595 293.424C34.0357 293.424 32.7716 290.76 32.7716 287.473C32.7716 284.187 34.0357 281.522 35.595 281.522C37.1543 281.522 38.4183 284.187 38.4183 287.473C38.4183 290.76 37.1543 293.424 35.595 293.424Z"
        fill="#311E69" />
        <path
        d="M17.814 293.424C16.2547 293.424 14.9906 290.76 14.9906 287.473C14.9906 284.187 16.2547 281.522 17.814 281.522C19.3733 281.522 20.6373 284.187 20.6373 287.473C20.6373 290.76 19.3733 293.424 17.814 293.424Z"
        fill="#311E69" />
        <path
        d="M141.229 359.917C140.858 359.862 140.515 359.688 140.25 359.422C139.985 359.157 139.813 358.813 139.758 358.441C137.466 342.46 154.913 280.211 167.649 234.743C169.134 229.441 170.557 224.374 171.877 219.64C184.444 174.417 218.728 146.848 219.071 146.576C219.433 146.289 219.895 146.158 220.354 146.212C220.813 146.266 221.232 146.5 221.518 146.862C221.804 147.225 221.935 147.686 221.882 148.145C221.829 148.604 221.597 149.023 221.236 149.311C220.898 149.579 187.488 176.48 175.236 220.571C173.916 225.314 172.497 230.381 171.008 235.683C158.352 280.855 141.022 342.718 143.211 357.943C143.244 358.17 143.231 358.401 143.175 358.623C143.118 358.845 143.018 359.054 142.88 359.237C142.743 359.42 142.571 359.575 142.374 359.692C142.176 359.808 141.958 359.885 141.731 359.917C141.565 359.941 141.396 359.941 141.229 359.917Z"
        fill="#614CD4" />
        <path
        d="M143.409 358.394C143.662 357.111 144.01 355.236 144.451 352.852C151.423 327.625 181.244 269.132 181.564 268.493C181.669 268.289 181.732 268.066 181.751 267.837C181.77 267.609 181.743 267.379 181.673 267.16C181.603 266.942 181.49 266.74 181.342 266.565C181.193 266.39 181.012 266.247 180.807 266.142C180.604 266.037 180.381 265.974 180.153 265.955C179.924 265.936 179.694 265.963 179.476 266.033C179.258 266.103 179.056 266.216 178.881 266.365C178.707 266.513 178.563 266.695 178.459 266.899C177.411 268.949 159.362 304.357 148.214 331.893C150.803 317.321 154.321 297.255 158.719 272.197C166.338 228.599 168.495 208.815 168.584 208.373C168.663 207.919 168.559 207.453 168.295 207.076C168.031 206.698 167.628 206.442 167.175 206.361C166.721 206.287 166.257 206.393 165.88 206.656C165.504 206.92 165.245 207.32 165.159 207.771C156.295 258.899 145.941 325.561 141.069 352.077C140.522 353.998 140.092 355.951 139.782 357.924C139.472 360.049 139.265 361.454 141.008 361.732H141.041C142.695 362.004 142.953 360.716 143.409 358.394Z"
        fill="#614CD4" />
        <path
        d="M181.63 282.961C181.63 282.961 155.792 257.653 167.128 225.051C178.463 192.448 248.869 156.583 285.511 174.755C322.154 192.927 231.243 333.397 181.63 282.961Z"
        fill="url(#paint0_linear_2_84)" />
        <g style="mix-blend-mode:multiply">
        <g style="mix-blend-mode:multiply">
            <path
            d="M285.506 174.736C283.276 173.64 280.954 172.738 278.568 172.043C287.179 181.369 277.915 191.371 276.398 200.772C274.631 211.743 258.391 213.91 245.585 221.502C232.779 229.093 227.456 245.474 218.906 248.666C210.356 251.857 201.464 268.408 198.236 271.647C195.009 274.885 174.151 273.4 174.151 273.4C176.31 276.831 178.811 280.034 181.615 282.961C231.243 333.397 322.149 192.885 285.506 174.736Z"
            fill="#C5D2D6" />
        </g>
        </g>
        <path
        d="M290.806 179.31C273.034 188.448 239.285 206.573 217.704 223.025L258.283 169.909C257.419 169.956 256.549 170.008 255.68 170.078L211.282 228.219C209.459 229.779 207.782 231.312 206.279 232.806C198.932 240.078 192.103 247.856 185.843 256.083C187.572 244.473 193.073 209.224 198.837 190.713C197.967 191.271 197.109 191.838 196.263 192.415C189.743 214.818 183.903 255.66 183.372 259.411C179.177 265.183 176.152 270.006 174.17 273.4C174.578 274.034 174.982 274.636 175.382 275.219C178.67 269.47 185.529 258.65 196.761 245.808L261.463 260.018C261.933 259.458 262.403 258.889 262.873 258.321L198.231 244.125C201.097 240.915 204.226 237.591 207.627 234.198C214.312 227.565 224.403 220.19 235.565 212.966L288.795 215.17C289.044 214.521 289.265 213.877 289.518 213.233L238.472 211.118C257.466 199.057 278.906 187.616 291.811 181.002C291.513 180.417 291.177 179.852 290.806 179.31Z"
        fill="#FF8B85" />
        <path
        d="M221.147 162.355C221.147 162.355 204.235 158.468 206.584 144.023C208.933 129.579 270.793 109.475 273.912 124.347C277.032 139.219 249.334 168.701 221.147 162.355Z"
        fill="url(#paint1_linear_2_84)" />
        <g style="mix-blend-mode:multiply">
        <path
            d="M206.584 144C206.979 141.565 209.065 138.97 212.264 136.409C213.203 137.772 214.143 139.064 214.58 139.558C215.688 140.775 210.136 150.524 212.701 152.879C215.266 155.234 223.364 155.375 233.756 152C244.147 148.625 251.091 150.975 258.212 144.376C265.334 137.776 260.434 139.271 265.409 134.307C268.111 131.686 271.033 129.302 274.143 127.181C273.706 142.651 247.657 168.334 221.161 162.355C221.147 162.355 204.263 158.468 206.584 144Z"
            fill="#C5D2D6" />
        </g>
        <path
        d="M209.769 155.699C213.919 151.561 218.484 147.862 223.393 144.663L236.274 124.371C237.181 124.06 238.097 123.759 239.008 123.468L227.048 142.312C244.321 131.59 264.771 124.089 272.231 121.527C272.733 121.95 273.151 122.466 273.461 123.045C262.836 126.725 252.447 131.056 242.353 136.014L270.539 138.232C270.201 138.815 269.844 139.398 269.468 139.981L239.243 137.602C228.79 143.013 218.296 149.617 211.056 157.011C210.604 156.597 210.174 156.16 209.769 155.699Z"
        fill="#FF8B85" />
        <path
        d="M150.122 106.654C150.122 106.654 149.497 103.364 153.297 103.04C157.098 102.715 161.688 103.735 161.688 107.063C161.682 108.287 161.613 109.509 161.481 110.725C161.404 111.511 161.519 112.304 161.816 113.036C162.113 113.768 162.583 114.417 163.186 114.927C164.109 115.646 164.769 116.649 165.065 117.78C165.31 119.101 164.736 120.789 164.126 122.105C163.831 122.735 163.678 123.423 163.678 124.119C163.678 124.815 163.831 125.503 164.126 126.133C164.802 127.509 165.148 129.023 165.136 130.556C165.046 134.077 158.77 137.217 154.801 136.362C150.831 135.506 152.776 127.294 154.105 125.391C154.105 125.391 150.347 118.702 150.873 115.435C151.399 112.168 150.122 106.654 150.122 106.654Z"
        fill="#1E1240" />
        <path
        d="M139.406 106.847C139.406 106.847 143.864 104.464 148.172 105.225C152.48 105.987 153.908 110.316 153.086 117.028C152.264 123.741 147.115 126.716 142.065 126.34C137.015 125.964 133.891 110.532 139.406 106.847Z"
        fill="#311E69" />
        <path
        d="M129.888 135.219C120.704 138.101 110.275 171.183 110.275 171.183C110.275 171.183 62.7668 212.077 68.5873 217.05C74.4078 222.023 132.134 194.206 136.235 167.756C140.336 141.306 138.152 132.629 129.888 135.219Z"
        fill="#AD263D" />
        <path
        d="M170.346 276.812C166.7 275.567 172.662 222.31 172.915 217.624C174.461 188.819 158.3 181.251 155.923 172.762C153.072 162.581 172.516 151.61 162.336 138.449C157.948 132.78 134.051 127.553 128.08 134.787C126.614 136.564 120.728 141.076 119.995 144.381C118.454 151.286 123.077 158.952 122.997 167.986C122.945 173.317 117.237 183.352 114.541 189.515C109.312 201.525 105.235 208.594 102.796 235.41C99.6818 269.945 109.923 315.958 137.889 360.162C139.373 362.512 146.091 360.425 146.091 360.425C146.363 356.838 141.821 305.373 131.241 286.839C127.38 280.079 133.12 224.449 134.793 224.698C135.972 224.877 124.364 309.848 206.955 316.917L209.53 309.951C209.53 309.951 192.275 284.333 170.346 276.812Z"
        fill="#FF6161" />
        <path
        d="M117.674 4.12703L94.209 27.9915L101.091 9.18948L99.3436 9.81463C77.1655 17.7632 59.3516 39.2445 40.7108 72.8013C22.0701 106.358 21.8399 177.937 21.8399 177.937L36.403 203.099L22.5587 193.031C25.5793 224.284 48.5796 260.309 48.5796 260.309C48.5796 260.309 52.3989 266.786 56.9322 267.933C62.4897 269.343 82.1216 262.048 88.9475 257.592C94.6505 253.869 104.676 206.126 109.848 180.227C110.515 176.899 88.0972 196.048 88.581 193.581C88.8394 192.274 112.07 168.988 112.267 167.982C114.268 157.829 118.788 137.635 123.161 118.434L93.8049 132.681L125.9 106.457C130.184 87.8006 133.736 72.6133 133.736 72.6133L105.507 82.5173L151.075 52.5469C151.075 52.5469 178.647 27.5308 171.525 9.77234C164.924 -6.73112 125.994 2.24683 117.674 4.12703Z"
        fill="#FFE6E6" />
        <path d="M72.8482 87.8617L112.948 60.2463L72.1764 80.9285L72.8482 87.8617Z" fill="#FFCACA" />
        <path d="M65.2801 116.469L116.523 89.4317L63.6171 127.384L65.2801 116.469Z" fill="#FFCACA" />
        <path
        d="M73.2147 78.2539L82.7464 38.4313C82.7464 38.4313 66.1915 75.161 70.5557 86.0051C70.5557 86.0051 73.2476 84.5197 73.2147 78.2539Z"
        fill="#FFCACA" />
        <path
        d="M79.7446 262.194C79.7446 262.194 73.2899 246.729 74.9153 233.103C76.5407 219.476 73.1395 170.793 72.0637 151.229C70.9879 131.666 71.9886 133.96 77.3205 111.533C82.6525 89.1074 77.3675 80.073 91.9588 61.9996C106.55 43.9261 146.984 19.0041 126.6 24.9032C106.216 30.8024 89.5864 51.1085 89.5864 51.1085C89.5864 51.1085 76.5783 67.6919 71.0396 91.0017C65.501 114.311 61.1743 153.622 61.4186 158.562C61.6629 163.502 61.7428 218.296 63.9836 228.285C66.2244 238.273 67.3989 261.24 69.0619 263.651C70.7249 266.062 71.3638 265.475 79.7446 262.194Z"
        fill="#FFCACA" />
        <path d="M61.2918 155.229L45.6669 90.5786L62.5132 142.782L61.2918 155.229Z" fill="#FFCACA" />
        <path
        d="M68.5545 268.619C64.3265 253.498 62.4474 237.483 60.93 221.887C59.3844 205.905 58.4543 189.839 58.459 173.796C58.459 142.637 61.893 110.471 72.2516 80.9332C77.2876 66.5638 84.2826 53.346 95.421 42.7934C103.623 35.0281 88.924 52.2367 82.0418 65.9668C75.1595 79.697 71.1288 94.9266 68.2632 109.978C62.2877 141.363 61.9494 173.378 64.3782 205.153C65.5902 221.003 67.4505 236.835 70.4853 252.454C71.9322 259.942 73.9428 267.285 75.6528 274.707C77.4614 282.514 79.2278 290.331 80.8203 298.181C81.4357 301.236 82.0652 304.292 82.4974 307.384C82.5585 307.855 83.1081 310.581 82.4176 310.44C81.5203 310.252 80.4398 306.007 80.1861 305.312C78.9318 301.866 77.7903 298.383 76.6628 294.895C74.3139 287.628 72.0778 280.324 69.8745 273.019C69.4095 271.553 68.982 270.086 68.5545 268.619Z"
        fill="white" />
        <path d="M118.2 140.437L92.4708 156.353L86.7019 159.92L115.983 150.463L118.2 140.437Z" fill="#FFCACA" />
        <path
        d="M146.302 121.696L146.608 133.494C146.655 135.435 141.938 140.498 138.842 138.077C137.936 137.372 139.077 134.683 139.895 132.657L142.065 122.486L146.302 121.696Z"
        fill="#FF6161" />
        <path d="M140.778 128.526C143.296 127.713 145.786 123.882 145.786 123.882L141.755 123.938L140.778 128.526Z"
        fill="#311E69" />
        <path
        d="M170.346 276.812C169.627 276.568 169.289 274.293 169.199 270.786C168.1 275.454 167.72 281.367 170.566 286.345C176.265 296.296 200.237 312.033 207.463 312.626C207.839 312.655 208.216 312.644 208.59 312.593L209.558 309.97C209.558 309.97 192.275 284.333 170.346 276.812Z"
        fill="#AD263D" />
        <path
        d="M146.922 114.589L147.674 119.111C148.271 122.697 146.011 126.284 142.441 126.951C139.152 127.572 135.934 125.696 135.394 121.527C134.924 117.818 137.527 114.589 138.467 112.901C140.604 109.056 145.673 109.475 146.922 114.589Z"
        fill="#FF6161" />
        <path
        d="M147.209 118.062C147.446 117.737 147.648 117.387 147.81 117.019C148.135 116.323 148.778 115.369 149.572 116.356C150.728 117.79 148.802 121.395 146.955 120.878C145.584 120.497 146.598 118.876 147.209 118.062Z"
        fill="#FF6161" />
        <path
        d="M142.013 125.48C140.656 125.536 138.852 125.583 137.24 124.201C136.371 123.454 135.554 121.715 135.361 121.32C135.361 121.39 135.361 121.456 135.361 121.527C135.887 125.696 139.096 127.572 142.408 126.951C143.456 126.744 144.437 126.282 145.265 125.605C146.092 124.929 146.741 124.059 147.153 123.073C145.77 124.447 143.953 125.297 142.013 125.48Z"
        fill="#AD263D" />
        <path
        d="M143.404 360.406C141.995 361.68 136.249 369.173 134.229 369.375C133.367 369.464 132.495 369.41 131.65 369.215C132.937 368.204 134.351 365.826 135.643 363.231C136.857 360.929 137.478 358.36 137.452 355.757L145.936 358.578C145.936 358.578 146.086 358.935 146.279 359.485C145.239 359.421 144.213 359.75 143.404 360.406Z"
        fill="#FF6161" />
        <path
        d="M126.431 372.035C127.183 371.325 128.531 370.493 130.922 369.643C131.186 369.54 131.432 369.396 131.65 369.215C132.495 369.41 133.367 369.464 134.229 369.375C136.249 369.173 141.985 361.68 143.404 360.406C144.217 359.758 145.242 359.438 146.279 359.508C146.711 360.749 147.359 362.977 147.012 364.378C146.504 366.404 145.292 372.186 145.494 373.995H142.962V367.532C141.89 368.099 140.903 368.814 140.031 369.657C139.584 370.225 139.228 370.86 138.974 371.537C138.655 372.279 138.126 372.91 137.45 373.352C136.775 373.795 135.985 374.028 135.178 374.023H127.225C126.991 374.032 126.76 373.968 126.564 373.84C126.368 373.712 126.216 373.526 126.129 373.309C126.042 373.091 126.025 372.852 126.079 372.624C126.133 372.396 126.256 372.19 126.431 372.035Z"
        fill="#FFE6E6" />
        <path
        d="M210.117 312.066C210.986 313.758 216.769 321.218 216.449 323.225C216.317 324.082 216.044 324.911 215.641 325.679C214.993 324.179 213.053 322.201 210.873 320.292C208.96 318.53 206.636 317.274 204.113 316.64L209.018 309.152C209.018 309.152 209.403 309.095 209.985 309.053C209.654 310.039 209.701 311.113 210.117 312.066Z"
        fill="#FF6161" />
        <path
        d="M217.037 331.46C216.567 330.553 216.097 329.04 215.867 326.506C215.835 326.225 215.759 325.95 215.641 325.693C216.044 324.925 216.317 324.096 216.449 323.239C216.769 321.232 210.986 313.773 210.117 312.08C209.701 311.127 209.654 310.053 209.985 309.067C211.291 308.964 213.612 308.903 214.876 309.598C216.708 310.604 221.983 313.251 223.801 313.519L223.158 315.963L216.896 314.313C217.171 315.497 217.611 316.636 218.202 317.697C218.636 318.27 219.154 318.774 219.738 319.192C220.374 319.689 220.849 320.363 221.105 321.128C221.361 321.894 221.385 322.718 221.175 323.498L219.146 331.193C219.092 331.417 218.971 331.62 218.799 331.774C218.627 331.928 218.413 332.026 218.184 332.055C217.955 332.084 217.722 332.043 217.518 331.937C217.313 331.83 217.145 331.664 217.037 331.46Z"
        fill="#FFE6E6" />
        <path
        d="M145.4 325.698C139.176 327.329 124.895 332.147 117.585 332.795C101.472 297.979 100.382 262.546 102.825 235.443C105.249 208.627 109.326 201.557 114.569 189.548C116.509 185.092 120.023 178.619 121.841 173.359C130.339 173.42 146.692 173.524 156.158 173.439C159.151 181.674 174.433 189.581 172.929 217.624C172.676 222.324 166.714 275.567 170.36 276.812C180.624 280.328 189.874 287.816 196.803 294.792C193.045 299.182 185.688 309.594 177.862 315.295C125.524 293.997 135.864 224.872 134.835 224.717C133.182 224.468 130.198 280.042 134.055 286.796C139.195 295.835 142.972 310.379 145.4 325.698Z"
        fill="#311E69" />
        <path
        d="M170.346 276.812C166.7 275.567 172.662 222.31 172.915 217.624C174.419 189.566 159.137 181.66 156.144 173.439C153.189 173.467 149.567 173.472 145.72 173.472C145.936 189.303 146.913 210.051 150.371 217.657C156.257 230.574 151.724 267.543 156.948 276.164C160.551 282.119 160.161 294.674 157.29 301.946C163.201 307.714 170.19 312.259 177.857 315.324C185.684 309.622 193.05 299.21 196.799 294.82C189.86 287.826 180.61 280.338 170.346 276.812Z"
        fill="#1E1240" />
        <path
        d="M121.329 190.61C119.61 191.865 118.078 191.95 117.172 190.14C113.841 183.479 117.406 171.112 117.764 168.377C117.975 166.774 117.294 159.742 116.678 154.195C118.05 151 119.583 147.876 121.273 144.837C122.738 144.503 124.152 144.493 124.998 145.307C127.347 147.563 129.771 159.22 131.006 168.616C131.777 174.45 127.544 183.888 123.429 188.626C122.748 189.294 122.024 189.952 121.329 190.61Z"
        fill="#311E69" />
        <path
        d="M143.93 108.619C143.93 108.619 141.67 106.692 139.561 107.101C135.916 107.806 134.746 113.071 134.605 116.61C134.544 117.879 134.61 119.152 134.802 120.408C134.811 120.476 134.844 120.538 134.896 120.584C134.947 120.629 135.013 120.654 135.082 120.654C135.15 120.654 135.216 120.629 135.268 120.584C135.319 120.538 135.353 120.476 135.361 120.408C135.796 117.979 136.742 115.67 138.138 113.635C139.246 112.013 141.6 111.336 142.77 110.913C144.386 110.33 143.794 109.042 143.93 108.619Z"
        fill="#311E69" />
        <path
        d="M113.132 186.065C116.016 179.996 119.953 171.601 119.995 167.065C120.075 158.054 118.454 151.314 119.995 144.409C120.681 141.33 125.83 137.208 127.713 135.219L132.651 144.945L148.994 137.79C149.412 147.53 155.369 156.231 159.578 160.597C157.032 164.828 158.122 168.588 159.217 172.504C160.311 176.419 162.684 180.189 166.616 186.065C164.779 186.77 164.008 189.458 157.878 190.375C155.529 190.728 149.586 189.435 146.603 189.722C143.371 190.013 136.108 192.293 132.909 192.156C122.654 191.733 119.676 186.807 113.132 186.065Z"
        fill="#D95F76" />
        <path
        d="M159.217 172.504C158.122 168.588 157.032 164.823 159.578 160.597C155.35 156.231 149.412 147.53 148.994 137.79L147.529 138.43C147.143 143.041 146.199 148.705 143.93 152.423C139.538 159.615 131.326 158.125 133.905 165.674C135.498 170.346 138.452 181.782 144.339 190.083C145.09 189.924 145.849 189.804 146.612 189.722C149.586 189.449 155.538 190.727 157.887 190.375C164.018 189.435 164.788 186.77 166.625 186.065C162.684 180.189 160.335 176.49 159.217 172.504Z"
        fill="#AA3766" />
        <path
        d="M161.016 138.618C174.17 144.653 152.738 179.658 139.448 194.286C126.158 208.914 101.42 230.804 93.9082 225.751C86.3965 220.698 123.852 186.521 127.577 181.768C133.158 174.652 148.802 132.977 161.016 138.618Z"
        fill="#FF6161" />
        <path
        d="M125.712 139.13C125.82 139.13 125.926 139.106 126.023 139.058C126.12 139.011 126.205 138.942 126.271 138.857L128.474 136.037C129.448 134.862 130.65 133.898 132.008 133.201C133.365 132.505 134.85 132.091 136.371 131.985C136.56 131.967 136.733 131.876 136.855 131.731C136.976 131.586 137.035 131.398 137.02 131.21C137.001 131.022 136.909 130.849 136.764 130.728C136.619 130.606 136.433 130.547 136.245 130.561C130.278 131.092 127.446 135.022 127.319 135.186L125.139 137.964C125.081 138.038 125.038 138.122 125.013 138.213C124.987 138.303 124.98 138.397 124.991 138.49C125.003 138.584 125.032 138.673 125.079 138.755C125.125 138.837 125.187 138.908 125.261 138.966C125.388 139.071 125.547 139.129 125.712 139.13Z"
        fill="#D95F76" />
        <path
        d="M147.312 140.771C147.418 140.769 147.523 140.743 147.618 140.696C147.713 140.649 147.796 140.581 147.862 140.498L149.544 138.228C150.014 137.701 152.663 134.693 151.926 132.723C151.893 132.635 151.844 132.555 151.78 132.486C151.716 132.418 151.64 132.362 151.555 132.323C151.469 132.284 151.377 132.263 151.284 132.26C151.19 132.256 151.097 132.272 151.01 132.305C150.919 132.337 150.836 132.388 150.765 132.453C150.694 132.518 150.637 132.597 150.598 132.685C150.558 132.773 150.537 132.868 150.535 132.964C150.533 133.06 150.551 133.156 150.587 133.245C150.906 134.096 149.497 136.192 148.445 137.344L146.716 139.671C146.66 139.746 146.619 139.831 146.597 139.922C146.574 140.013 146.57 140.108 146.583 140.2C146.597 140.293 146.63 140.382 146.678 140.462C146.727 140.542 146.791 140.612 146.866 140.667C146.998 140.752 147.156 140.789 147.312 140.771Z"
        fill="#D95F76" />
        <path
        d="M137.724 120.46C137.724 120.46 140.67 121.771 142.399 121.696C142.399 121.696 140.106 122.462 139.11 121.997C138.481 121.664 137.991 121.12 137.724 120.46Z"
        fill="#FFE6E6" />
        <path
        d="M94.3734 220.811C94.3734 220.811 90.1454 218.141 87.1576 217.887C84.1699 217.633 83.3243 214.023 82.4599 215.603C81.5955 217.182 83.686 219.386 84.696 220.007C85.706 220.627 78.3916 221.845 78.3916 221.845C78.3916 221.845 79.9748 226.31 84.7571 227.434C89.5394 228.557 97.2531 227.236 98.3806 225.756C99.508 224.275 94.3734 220.811 94.3734 220.811Z"
        fill="#FF6161" />
        <path
        d="M131.674 287.624C130.109 290.294 129.118 294.745 130.264 302.167C133.083 320.198 139.439 349.98 143.014 355.24C143.846 356.458 144.879 357.526 146.068 358.399C145.541 348.124 141.036 305.044 131.674 287.624Z"
        fill="#AD263D" />
        <path
        d="M157.892 167.695C157.892 167.695 155.923 177.745 143.282 195.625C137.673 203.56 108.645 221.53 108.645 221.53C108.645 221.53 142.586 182.309 143.93 180.664C145.274 179.019 157.892 167.695 157.892 167.695Z"
        fill="#1E1240" />
        <path
        d="M121.517 266.88C122.128 285.433 116.57 305.279 109.03 309.885C111.303 317.725 114.162 325.381 117.585 332.791C124.895 332.142 139.195 327.324 145.4 325.693C142.972 310.379 139.195 295.835 134.041 286.806C130.391 280.413 132.862 230.362 134.544 225.173C132.599 228.294 120.892 247.928 121.517 266.88Z"
        fill="#1E1240" />
        <path
        d="M139.458 194.276C152.56 179.836 173.611 145.551 161.486 138.872C161.453 139.384 161.415 139.92 161.382 140.498C160.912 148.132 154.472 159.77 152.358 164.141C150.244 168.513 139.35 185.637 133.153 192.866C126.957 200.096 119.112 206.112 110.863 209.027C104.394 211.316 99.0853 221.962 97.0934 226.456C106.884 225.925 127.662 207.245 139.458 194.276Z"
        fill="#AD263D" />
    </g>
    <defs>
        <linearGradient id="paint0_linear_2_84" x1="187.306" y1="267.746" x2="294.127" y2="150.317"
        gradientUnits="userSpaceOnUse">
        <stop stop-color="#614CD4" />
        <stop offset="1" stop-color="#FF8B85" />
        </linearGradient>
        <linearGradient id="paint1_linear_2_84" x1="25409.8" y1="52612.4" x2="16960.7" y2="45229.4"
        gradientUnits="userSpaceOnUse">
        <stop stop-color="#614CD4" />
        <stop offset="1" stop-color="#FF8B85" />
        </linearGradient>
        <clipPath id="clip0_2_84">
        <rect width="294" height="374" fill="white" transform="matrix(-1 0 0 1 294 0)" />
        </clipPath>
    </defs>
</svg>