<svg width="30" height="31" viewBox="0 0 30 31" fill="none" xmlns="http://www.w3.org/2000/svg">
<path d="M14.9982 30.5C11.284 30.4955 7.70375 29.1101 4.95208 26.6125C2.20041 24.115 0.473436 20.6833 0.106175 16.9832C-0.261086 13.2831 0.757536 9.57827 2.96445 6.58747C5.17137 3.59666 8.40926 1.53304 12.05 0.796919C15.6908 0.0607956 19.4749 0.704641 22.6683 2.60356C25.8617 4.50248 28.2368 7.5211 29.3327 11.0739C30.4287 14.6267 30.1675 18.4603 28.5998 21.8312C27.0321 25.2021 24.2696 27.8699 20.8482 29.3172C18.9976 30.1014 17.0079 30.5037 14.9982 30.5V30.5Z" fill="white"/>
<path d="M9.54531 16.1884C10.6833 16.1884 11.6057 15.0103 11.6057 13.5571C11.6057 12.1038 10.6833 10.9258 9.54531 10.9258C8.40735 10.9258 7.48486 12.1038 7.48486 13.5571C7.48486 15.0103 8.40735 16.1884 9.54531 16.1884Z" fill="#6200EE"/>
<path d="M20.4511 16.1884C21.5891 16.1884 22.5116 15.0103 22.5116 13.5571C22.5116 12.1038 21.5891 10.9258 20.4511 10.9258C19.3132 10.9258 18.3907 12.1038 18.3907 13.5571C18.3907 15.0103 19.3132 16.1884 20.4511 16.1884Z" fill="#6200EE"/>
<path d="M14.9982 24.7814C13.6863 24.7817 12.3995 24.4215 11.2781 23.7399C10.1567 23.0584 9.24371 22.0816 8.63876 20.9163C8.51182 20.6643 8.48914 20.3724 8.57563 20.1038C8.66211 19.8353 8.85081 19.6116 9.10085 19.4813C9.35089 19.351 9.64213 19.3246 9.91149 19.4078C10.1809 19.4909 10.4067 19.6769 10.54 19.9256C10.9642 20.7425 11.6042 21.4272 12.3904 21.905C13.1765 22.3829 14.0785 22.6355 14.9982 22.6355C15.9179 22.6355 16.82 22.3829 17.6061 21.905C18.3922 21.4272 19.0323 20.7425 19.4565 19.9256C19.5215 19.8006 19.6104 19.6897 19.7182 19.5992C19.826 19.5086 19.9505 19.4402 20.0847 19.3979C20.2189 19.3555 20.3602 19.34 20.5004 19.3523C20.6405 19.3646 20.7769 19.4044 20.9017 19.4694C21.0266 19.5345 21.1374 19.6235 21.2278 19.7314C21.3182 19.8393 21.3866 19.964 21.4289 20.0984C21.4712 20.2327 21.4867 20.3741 21.4744 20.5144C21.4621 20.6548 21.4224 20.7913 21.3574 20.9163C20.7524 22.0815 19.8395 23.0581 18.7181 23.7396C17.5968 24.4211 16.3101 24.7814 14.9982 24.7811V24.7814Z" fill="#6200EE"/>
</svg>
