<svg width="50" height="50" viewBox="0 0 50 50" fill="none" xmlns="http://www.w3.org/2000/svg">
<path d="M24.9425 50C18.7521 49.9925 12.7851 47.6835 8.19894 43.5209C3.61282 39.3583 0.734535 33.6388 0.122433 27.472C-0.489669 21.3051 1.20804 15.1305 4.88623 10.1458C8.56442 5.1611 13.9609 1.72174 20.0288 0.494866C26.0968 -0.732007 32.4036 0.341068 37.726 3.50593C43.0483 6.6708 47.0067 11.7018 48.8334 17.6231C50.66 23.5444 50.2247 29.9339 47.6118 35.552C44.999 41.1702 40.3948 45.6165 34.6925 48.0286C31.6081 49.3357 28.2919 50.0062 24.9425 50V50Z" fill="#23036A"/>
<path d="M15.8544 26.1472C17.7509 26.1472 19.2884 24.1838 19.2884 21.7618C19.2884 19.3397 17.7509 17.3763 15.8544 17.3763C13.9578 17.3763 12.4203 19.3397 12.4203 21.7618C12.4203 24.1838 13.9578 26.1472 15.8544 26.1472Z" fill="white"/>
<path d="M34.0308 26.1472C35.9273 26.1472 37.4648 24.1838 37.4648 21.7618C37.4648 19.3397 35.9273 17.3763 34.0308 17.3763C32.1342 17.3763 30.5967 19.3397 30.5967 21.7618C30.5967 24.1838 32.1342 26.1472 34.0308 26.1472Z" fill="white"/>
<path d="M24.9425 40.469C22.756 40.4696 20.6113 39.8692 18.7422 38.7332C16.8732 37.5973 15.3516 35.9694 14.3434 34.0271C14.1318 33.6072 14.094 33.1207 14.2381 32.6731C14.3823 32.2255 14.6968 31.8527 15.1135 31.6356C15.5302 31.4184 16.0156 31.3744 16.4646 31.5129C16.9135 31.6515 17.2899 31.9616 17.5121 32.376C18.2191 33.7375 19.2858 34.8786 20.596 35.675C21.9062 36.4714 23.4097 36.8926 24.9425 36.8926C26.4753 36.8926 27.9787 36.4714 29.2889 35.675C30.5992 34.8786 31.6659 33.7375 32.3729 32.376C32.4812 32.1677 32.6294 31.9829 32.8091 31.832C32.9888 31.681 33.1963 31.567 33.42 31.4964C33.6437 31.4258 33.8791 31.4 34.1127 31.4205C34.3463 31.441 34.5736 31.5073 34.7817 31.6157C34.9897 31.7241 35.1744 31.8725 35.3251 32.0524C35.4758 32.2322 35.5897 32.44 35.6603 32.664C35.7308 32.8879 35.7566 33.1235 35.7361 33.3574C35.7157 33.5913 35.6494 33.8189 35.5411 34.0271C34.5328 35.9692 33.0113 37.5969 31.1423 38.7327C29.2734 39.8686 27.1289 40.469 24.9425 40.4685V40.469Z" fill="white"/>
</svg>
