<svg width="30" height="31" viewBox="0 0 30 31" fill="none" xmlns="http://www.w3.org/2000/svg">
<path d="M14.9984 30.5C11.2841 30.4955 7.70386 29.1101 4.95219 26.6125C2.20052 24.115 0.473558 20.6833 0.106297 16.9832C-0.260964 13.2831 0.757658 9.57827 2.96457 6.58747C5.17149 3.59666 8.40937 1.53304 12.0501 0.796919C15.6909 0.0607956 19.475 0.704641 22.6684 2.60356C25.8618 4.50248 28.2369 7.5211 29.3329 11.0739C30.4289 14.6267 30.1677 18.4603 28.5999 21.8312C27.0322 25.2021 24.2697 27.8699 20.8483 29.3172C18.9977 30.1014 17.008 30.5037 14.9984 30.5V30.5Z" fill="white"/>
<path d="M20.4513 16.1884C21.5893 16.1884 22.5118 15.0103 22.5118 13.5571C22.5118 12.1038 21.5893 10.9258 20.4513 10.9258C19.3134 10.9258 18.3909 12.1038 18.3909 13.5571C18.3909 15.0103 19.3134 16.1884 20.4513 16.1884Z" fill="#6200EE"/>
<path d="M9.54543 16.1884C10.6834 16.1884 11.6059 15.0103 11.6059 13.5571C11.6059 12.1038 10.6834 10.9258 9.54543 10.9258C8.40748 10.9258 7.48499 12.1038 7.48499 13.5571C7.48499 15.0103 8.40748 16.1884 9.54543 16.1884Z" fill="#6200EE"/>
<path d="M19.9487 22.4938H10.048C9.90575 22.4962 9.76447 22.4702 9.63237 22.4174C9.50028 22.3645 9.38001 22.2859 9.27858 22.186C9.17716 22.0862 9.0966 21.9671 9.04161 21.8358C8.98663 21.7044 8.95831 21.5635 8.95831 21.421C8.95831 21.2786 8.98663 21.1377 9.04161 21.0063C9.0966 20.875 9.17716 20.7559 9.27858 20.656C9.38001 20.5562 9.50028 20.4776 9.63237 20.4247C9.76447 20.3719 9.90575 20.3459 10.048 20.3483H19.9487C20.2298 20.353 20.4978 20.4681 20.6949 20.6687C20.892 20.8694 21.0025 21.1396 21.0025 21.421C21.0025 21.7025 20.892 21.9727 20.6949 22.1733C20.4978 22.374 20.2298 22.4891 19.9487 22.4938Z" fill="#6200EE"/>
</svg>
