<svg width="40" height="40" viewBox="0 0 40 40" fill="none" xmlns="http://www.w3.org/2000/svg">
<path d="M19.954 40C15.0017 39.994 10.228 38.1468 6.55914 34.8167C2.89025 31.4866 0.587628 26.9111 0.0979463 21.9776C-0.391735 17.0441 0.966428 12.1044 3.90898 8.11662C6.85153 4.12888 11.1687 1.37739 16.0231 0.395892C20.8774 -0.585606 25.9229 0.272854 30.1807 2.80475C34.4386 5.33664 37.6054 9.36147 39.0667 14.0985C40.528 18.8355 40.1798 23.9471 38.0895 28.4416C35.9992 32.9361 32.3158 36.4932 27.754 38.4229C25.2864 39.4685 22.6335 40.0049 19.954 40V40Z" fill="#23036A"/>
<path d="M27.2247 20.9178C28.7419 20.9178 29.9719 19.3471 29.9719 17.4094C29.9719 15.4718 28.7419 13.9011 27.2247 13.9011C25.7074 13.9011 24.4774 15.4718 24.4774 17.4094C24.4774 19.3471 25.7074 20.9178 27.2247 20.9178Z" fill="white"/>
<path d="M12.6834 20.9178C14.2007 20.9178 15.4307 19.3471 15.4307 17.4094C15.4307 15.4718 14.2007 13.9011 12.6834 13.9011C11.1661 13.9011 9.93616 15.4718 9.93616 17.4094C9.93616 19.3471 11.1661 20.9178 12.6834 20.9178Z" fill="white"/>
<path d="M26.5544 29.3251H13.3535C13.1639 29.3283 12.9755 29.2936 12.7994 29.2232C12.6233 29.1527 12.4629 29.0479 12.3277 28.9147C12.1924 28.7816 12.085 28.6228 12.0117 28.4477C11.9384 28.2726 11.9006 28.0846 11.9006 27.8947C11.9006 27.7049 11.9384 27.5169 12.0117 27.3418C12.085 27.1666 12.1924 27.0079 12.3277 26.8748C12.4629 26.7416 12.6233 26.6368 12.7994 26.5663C12.9755 26.4958 13.1639 26.4612 13.3535 26.4644H26.5544C26.9292 26.4706 27.2866 26.6241 27.5494 26.8917C27.8122 27.1592 27.9595 27.5195 27.9595 27.8947C27.9595 28.27 27.8122 28.6302 27.5494 28.8978C27.2866 29.1654 26.9292 29.3188 26.5544 29.3251Z" fill="white"/>
</svg>
