<svg width="30" height="31" viewBox="0 0 30 31" fill="none" xmlns="http://www.w3.org/2000/svg">
<path d="M14.9982 30.5C11.284 30.4955 7.70374 29.1101 4.95207 26.6125C2.2004 24.115 0.473436 20.6833 0.106175 16.9832C-0.261086 13.2831 0.757536 9.57827 2.96445 6.58747C5.17136 3.59666 8.40925 1.53304 12.05 0.796919C15.6908 0.0607957 19.4749 0.704641 22.6683 2.60356C25.8617 4.50248 28.2367 7.5211 29.3327 11.0739C30.4287 14.6267 30.1675 18.4603 28.5998 21.8312C27.0321 25.2021 24.2696 27.8699 20.8482 29.3172C18.9976 30.1014 17.0079 30.5037 14.9982 30.5Z" fill="white"/>
<path d="M20.4512 16.1884C21.5891 16.1884 22.5116 15.0103 22.5116 13.5571C22.5116 12.1038 21.5891 10.9258 20.4512 10.9258C19.3132 10.9258 18.3907 12.1038 18.3907 13.5571C18.3907 15.0103 19.3132 16.1884 20.4512 16.1884Z" fill="#6200EE"/>
<path d="M9.54531 16.1884C10.6833 16.1884 11.6058 15.0103 11.6058 13.5571C11.6058 12.1038 10.6833 10.9258 9.54531 10.9258C8.40736 10.9258 7.48486 12.1038 7.48486 13.5571C7.48486 15.0103 8.40736 16.1884 9.54531 16.1884Z" fill="#6200EE"/>
<path d="M9.58847 24.1381C9.40442 24.1378 9.22354 24.09 9.06325 23.9995C8.90296 23.9089 8.76865 23.7786 8.67325 23.621C8.57785 23.4634 8.52456 23.2839 8.51852 23.0998C8.51248 22.9156 8.55389 22.733 8.63877 22.5695C9.2438 21.4042 10.1567 20.4275 11.2781 19.7458C12.3994 19.0641 13.6862 18.7036 14.9981 18.7036C16.31 18.7036 17.5967 19.0641 18.7181 19.7458C19.8394 20.4275 20.7523 21.4042 21.3574 22.5695C21.4224 22.6945 21.4621 22.831 21.4744 22.9713C21.4867 23.1117 21.4712 23.253 21.4289 23.3874C21.3866 23.5217 21.3182 23.6464 21.2278 23.7543C21.1373 23.8623 21.0265 23.9513 20.9017 24.0163C20.7769 24.0814 20.6405 24.1212 20.5003 24.1335C20.3602 24.1457 20.2189 24.1303 20.0847 24.0879C19.9505 24.0455 19.826 23.9771 19.7182 23.8866C19.6104 23.796 19.5215 23.6851 19.4565 23.5602C19.0323 22.7433 18.3922 22.0586 17.6061 21.5807C16.82 21.1029 15.9179 20.8502 14.9982 20.8502C14.0785 20.8502 13.1765 21.1029 12.3904 21.5807C11.6042 22.0586 10.9642 22.7433 10.54 23.5602C10.4494 23.7345 10.3128 23.8805 10.145 23.9824C9.97724 24.0844 9.78472 24.1382 9.58847 24.1381Z" fill="#6200EE"/>
</svg>
