<svg width="40" height="40" viewBox="0 0 40 40" fill="none" xmlns="http://www.w3.org/2000/svg">
<path d="M19.954 40C15.0017 39.994 10.228 38.1468 6.55914 34.8167C2.89025 31.4866 0.587628 26.9111 0.0979464 21.9776C-0.391735 17.0441 0.966429 12.1044 3.90898 8.11662C6.85153 4.12888 11.1687 1.37739 16.0231 0.395892C20.8774 -0.585606 25.9229 0.272854 30.1808 2.80475C34.4386 5.33664 37.6054 9.36147 39.0667 14.0985C40.528 18.8355 40.1798 23.9471 38.0895 28.4416C35.9992 32.9361 32.3158 36.4932 27.754 38.4229C25.2865 39.4686 22.6335 40.005 19.954 40Z" fill="#23036A"/>
<path d="M27.2247 20.9178C28.7419 20.9178 29.9719 19.3471 29.9719 17.4094C29.9719 15.4718 28.7419 13.9011 27.2247 13.9011C25.7074 13.9011 24.4774 15.4718 24.4774 17.4094C24.4774 19.3471 25.7074 20.9178 27.2247 20.9178Z" fill="white"/>
<path d="M12.6834 20.9178C14.2007 20.9178 15.4307 19.3471 15.4307 17.4094C15.4307 15.4718 14.2007 13.9011 12.6834 13.9011C11.1661 13.9011 9.93616 15.4718 9.93616 17.4094C9.93616 19.3471 11.1661 20.9178 12.6834 20.9178Z" fill="white"/>
<path d="M12.741 31.5174C12.4956 31.517 12.2544 31.4534 12.0407 31.3326C11.827 31.2119 11.6479 31.0381 11.5207 30.828C11.3935 30.6179 11.3224 30.3786 11.3144 30.133C11.3063 29.8875 11.3615 29.644 11.4747 29.426C12.2814 27.8722 13.4987 26.5699 14.9938 25.661C16.4889 24.7521 18.2046 24.2715 19.9538 24.2715C21.703 24.2715 23.4186 24.7521 24.9138 25.661C26.4089 26.5699 27.6261 27.8722 28.4329 29.426C28.5195 29.5926 28.5725 29.7747 28.5889 29.9618C28.6052 30.1489 28.5846 30.3374 28.5282 30.5165C28.4718 30.6957 28.3807 30.8619 28.2601 31.0058C28.1395 31.1497 27.9917 31.2684 27.8253 31.3551C27.6589 31.4418 27.477 31.4949 27.2901 31.5113C27.1032 31.5277 26.9149 31.507 26.736 31.4505C26.557 31.3941 26.391 31.3029 26.2472 31.1821C26.1035 31.0614 25.9849 30.9135 25.8983 30.7469C25.3327 29.6577 24.4793 28.7448 23.4311 28.1077C22.383 27.4705 21.1802 27.1336 19.954 27.1336C18.7277 27.1336 17.525 27.4705 16.4768 28.1077C15.4287 28.7448 14.5753 29.6577 14.0096 30.7469C13.8889 30.9793 13.7068 31.1741 13.483 31.3099C13.2593 31.4458 13.0026 31.5176 12.741 31.5174Z" fill="white"/>
</svg>
